<mxfile host="app.diagrams.net" agent="Mozilla/5.0 (Windows NT 10.0; Win64; x64) AppleWebKit/537.36 (KHTML, like Gecko) Chrome/130.0.0.0 Safari/537.36 Edg/130.0.0.0" version="24.8.6">
  <diagram id="R2lEEEUBdFMjLlhIrx00" name="Page-1">
    <mxGraphModel dx="679" dy="772" grid="1" gridSize="10" guides="1" tooltips="1" connect="1" arrows="1" fold="1" page="0" pageScale="1" pageWidth="850" pageHeight="1100" math="0" shadow="0" extFonts="Permanent Marker^https://fonts.googleapis.com/css?family=Permanent+Marker">
      <root>
        <mxCell id="0" />
        <mxCell id="1" parent="0" />
        <mxCell id="euC8J88ZWMYubrAlpnpI-62" value="has" style="edgeStyle=elbowEdgeStyle;rounded=0;orthogonalLoop=1;jettySize=auto;elbow=vertical;html=1;" parent="1" source="euC8J88ZWMYubrAlpnpI-3" target="euC8J88ZWMYubrAlpnpI-58" edge="1">
          <mxGeometry relative="1" as="geometry" />
        </mxCell>
        <mxCell id="euC8J88ZWMYubrAlpnpI-3" value="Branch" style="swimlane;fontStyle=0;childLayout=stackLayout;horizontal=1;startSize=26;horizontalStack=0;resizeParent=1;resizeParentMax=0;resizeLast=0;collapsible=1;marginBottom=0;align=center;fontSize=14;" parent="1" vertex="1">
          <mxGeometry x="670" y="40" width="160" height="86" as="geometry" />
        </mxCell>
        <mxCell id="euC8J88ZWMYubrAlpnpI-4" value="city {PK}" style="text;strokeColor=none;fillColor=none;spacingLeft=4;spacingRight=4;overflow=hidden;rotatable=0;points=[[0,0.5],[1,0.5]];portConstraint=eastwest;fontSize=12;whiteSpace=wrap;html=1;" parent="euC8J88ZWMYubrAlpnpI-3" vertex="1">
          <mxGeometry y="26" width="160" height="30" as="geometry" />
        </mxCell>
        <mxCell id="euC8J88ZWMYubrAlpnpI-6" value="name {PK}" style="text;strokeColor=none;fillColor=none;spacingLeft=4;spacingRight=4;overflow=hidden;rotatable=0;points=[[0,0.5],[1,0.5]];portConstraint=eastwest;fontSize=12;whiteSpace=wrap;html=1;" parent="euC8J88ZWMYubrAlpnpI-3" vertex="1">
          <mxGeometry y="56" width="160" height="30" as="geometry" />
        </mxCell>
        <mxCell id="euC8J88ZWMYubrAlpnpI-53" value="belongs to" style="edgeStyle=elbowEdgeStyle;rounded=0;orthogonalLoop=1;jettySize=auto;elbow=vertical;html=1;" parent="1" source="euC8J88ZWMYubrAlpnpI-20" target="euC8J88ZWMYubrAlpnpI-3" edge="1">
          <mxGeometry relative="1" as="geometry">
            <Array as="points">
              <mxPoint x="605" y="111" />
            </Array>
          </mxGeometry>
        </mxCell>
        <mxCell id="euC8J88ZWMYubrAlpnpI-20" value="Employee" style="swimlane;fontStyle=0;childLayout=stackLayout;horizontal=1;startSize=26;horizontalStack=0;resizeParent=1;resizeParentMax=0;resizeLast=0;collapsible=1;marginBottom=0;align=center;fontSize=14;" parent="1" vertex="1">
          <mxGeometry x="400" y="51" width="160" height="176" as="geometry" />
        </mxCell>
        <mxCell id="euC8J88ZWMYubrAlpnpI-64" value="employeeNo {PK}" style="text;strokeColor=none;fillColor=none;spacingLeft=4;spacingRight=4;overflow=hidden;rotatable=0;points=[[0,0.5],[1,0.5]];portConstraint=eastwest;fontSize=12;whiteSpace=wrap;html=1;" parent="euC8J88ZWMYubrAlpnpI-20" vertex="1">
          <mxGeometry y="26" width="160" height="30" as="geometry" />
        </mxCell>
        <mxCell id="euC8J88ZWMYubrAlpnpI-22" value="firstName" style="text;strokeColor=none;fillColor=none;spacingLeft=4;spacingRight=4;overflow=hidden;rotatable=0;points=[[0,0.5],[1,0.5]];portConstraint=eastwest;fontSize=12;whiteSpace=wrap;html=1;" parent="euC8J88ZWMYubrAlpnpI-20" vertex="1">
          <mxGeometry y="56" width="160" height="30" as="geometry" />
        </mxCell>
        <mxCell id="euC8J88ZWMYubrAlpnpI-23" value="lastName" style="text;strokeColor=none;fillColor=none;spacingLeft=4;spacingRight=4;overflow=hidden;rotatable=0;points=[[0,0.5],[1,0.5]];portConstraint=eastwest;fontSize=12;whiteSpace=wrap;html=1;" parent="euC8J88ZWMYubrAlpnpI-20" vertex="1">
          <mxGeometry y="86" width="160" height="30" as="geometry" />
        </mxCell>
        <mxCell id="euC8J88ZWMYubrAlpnpI-63" value="&lt;span style=&quot;white-space: pre;&quot;&gt;&#x9;&lt;/span&gt;/ name" style="text;strokeColor=none;fillColor=none;spacingLeft=4;spacingRight=4;overflow=hidden;rotatable=0;points=[[0,0.5],[1,0.5]];portConstraint=eastwest;fontSize=12;whiteSpace=wrap;html=1;" parent="euC8J88ZWMYubrAlpnpI-20" vertex="1">
          <mxGeometry y="116" width="160" height="30" as="geometry" />
        </mxCell>
        <mxCell id="euC8J88ZWMYubrAlpnpI-65" value="dateofBirth" style="text;strokeColor=none;fillColor=none;spacingLeft=4;spacingRight=4;overflow=hidden;rotatable=0;points=[[0,0.5],[1,0.5]];portConstraint=eastwest;fontSize=12;whiteSpace=wrap;html=1;" parent="euC8J88ZWMYubrAlpnpI-20" vertex="1">
          <mxGeometry y="146" width="160" height="30" as="geometry" />
        </mxCell>
        <mxCell id="euC8J88ZWMYubrAlpnpI-35" style="edgeStyle=orthogonalEdgeStyle;rounded=0;orthogonalLoop=1;jettySize=auto;html=1;endArrow=block;endFill=0;" parent="1" source="euC8J88ZWMYubrAlpnpI-24" target="euC8J88ZWMYubrAlpnpI-20" edge="1">
          <mxGeometry relative="1" as="geometry">
            <mxPoint x="450" y="381.0000000000002" as="targetPoint" />
          </mxGeometry>
        </mxCell>
        <mxCell id="Vvzqq9-5pMk_CkmVVHlE-1" value="manages" style="edgeStyle=orthogonalEdgeStyle;rounded=0;orthogonalLoop=1;jettySize=auto;html=1;" parent="1" source="euC8J88ZWMYubrAlpnpI-24" target="euC8J88ZWMYubrAlpnpI-3" edge="1">
          <mxGeometry relative="1" as="geometry">
            <Array as="points">
              <mxPoint x="630" y="171" />
              <mxPoint x="700" y="171" />
            </Array>
          </mxGeometry>
        </mxCell>
        <mxCell id="euC8J88ZWMYubrAlpnpI-24" value="Branch Manager" style="swimlane;fontStyle=0;childLayout=stackLayout;horizontal=1;startSize=26;horizontalStack=0;resizeParent=1;resizeParentMax=0;resizeLast=0;collapsible=1;marginBottom=0;align=center;fontSize=14;" parent="1" vertex="1">
          <mxGeometry x="490" y="391" width="160" height="56" as="geometry" />
        </mxCell>
        <mxCell id="euC8J88ZWMYubrAlpnpI-34" value="{Optional, Or}" style="edgeStyle=orthogonalEdgeStyle;rounded=0;orthogonalLoop=1;jettySize=auto;html=1;endArrow=block;endFill=0;" parent="1" source="euC8J88ZWMYubrAlpnpI-28" target="euC8J88ZWMYubrAlpnpI-20" edge="1">
          <mxGeometry x="0.8182" y="-40" relative="1" as="geometry">
            <mxPoint x="450" y="381.0000000000002" as="targetPoint" />
            <mxPoint as="offset" />
          </mxGeometry>
        </mxCell>
        <mxCell id="euC8J88ZWMYubrAlpnpI-67" value="works in" style="edgeStyle=elbowEdgeStyle;rounded=0;orthogonalLoop=1;jettySize=auto;elbow=vertical;html=1;" parent="1" source="euC8J88ZWMYubrAlpnpI-28" target="euC8J88ZWMYubrAlpnpI-58" edge="1">
          <mxGeometry relative="1" as="geometry">
            <mxPoint x="440.00000000000045" y="506.9999999999998" as="sourcePoint" />
            <mxPoint x="749.9999999999995" y="386.9999999999998" as="targetPoint" />
            <Array as="points">
              <mxPoint x="750" y="551" />
            </Array>
          </mxGeometry>
        </mxCell>
        <mxCell id="euC8J88ZWMYubrAlpnpI-74" value="is responsible for" style="edgeStyle=elbowEdgeStyle;rounded=0;orthogonalLoop=1;jettySize=auto;elbow=vertical;html=1;" parent="1" source="euC8J88ZWMYubrAlpnpI-28" target="euC8J88ZWMYubrAlpnpI-70" edge="1">
          <mxGeometry relative="1" as="geometry" />
        </mxCell>
        <mxCell id="euC8J88ZWMYubrAlpnpI-91" style="edgeStyle=elbowEdgeStyle;rounded=0;orthogonalLoop=1;jettySize=auto;elbow=vertical;html=1;" parent="1" source="euC8J88ZWMYubrAlpnpI-28" target="euC8J88ZWMYubrAlpnpI-89" edge="1">
          <mxGeometry relative="1" as="geometry">
            <Array as="points">
              <mxPoint x="260" y="411" />
            </Array>
          </mxGeometry>
        </mxCell>
        <mxCell id="euC8J88ZWMYubrAlpnpI-28" value="Salesperson" style="swimlane;fontStyle=0;childLayout=stackLayout;horizontal=1;startSize=26;horizontalStack=0;resizeParent=1;resizeParentMax=0;resizeLast=0;collapsible=1;marginBottom=0;align=center;fontSize=14;" parent="1" vertex="1">
          <mxGeometry x="310" y="391" width="160" height="86" as="geometry" />
        </mxCell>
        <mxCell id="euC8J88ZWMYubrAlpnpI-30" value="yearOfHire" style="text;strokeColor=none;fillColor=none;spacingLeft=4;spacingRight=4;overflow=hidden;rotatable=0;points=[[0,0.5],[1,0.5]];portConstraint=eastwest;fontSize=12;whiteSpace=wrap;html=1;" parent="euC8J88ZWMYubrAlpnpI-28" vertex="1">
          <mxGeometry y="26" width="160" height="30" as="geometry" />
        </mxCell>
        <mxCell id="euC8J88ZWMYubrAlpnpI-31" value="commissionPercentage" style="text;strokeColor=none;fillColor=none;spacingLeft=4;spacingRight=4;overflow=hidden;rotatable=0;points=[[0,0.5],[1,0.5]];portConstraint=eastwest;fontSize=12;whiteSpace=wrap;html=1;" parent="euC8J88ZWMYubrAlpnpI-28" vertex="1">
          <mxGeometry y="56" width="160" height="30" as="geometry" />
        </mxCell>
        <mxCell id="euC8J88ZWMYubrAlpnpI-58" value="Office" style="swimlane;fontStyle=0;childLayout=stackLayout;horizontal=1;startSize=26;horizontalStack=0;resizeParent=1;resizeParentMax=0;resizeLast=0;collapsible=1;marginBottom=0;align=center;fontSize=14;" parent="1" vertex="1">
          <mxGeometry x="670" y="241" width="160" height="116" as="geometry" />
        </mxCell>
        <mxCell id="euC8J88ZWMYubrAlpnpI-59" value="officeNo {PK}" style="text;strokeColor=none;fillColor=none;spacingLeft=4;spacingRight=4;overflow=hidden;rotatable=0;points=[[0,0.5],[1,0.5]];portConstraint=eastwest;fontSize=12;whiteSpace=wrap;html=1;" parent="euC8J88ZWMYubrAlpnpI-58" vertex="1">
          <mxGeometry y="26" width="160" height="30" as="geometry" />
        </mxCell>
        <mxCell id="euC8J88ZWMYubrAlpnpI-60" value="telephoneNumber" style="text;strokeColor=none;fillColor=none;spacingLeft=4;spacingRight=4;overflow=hidden;rotatable=0;points=[[0,0.5],[1,0.5]];portConstraint=eastwest;fontSize=12;whiteSpace=wrap;html=1;" parent="euC8J88ZWMYubrAlpnpI-58" vertex="1">
          <mxGeometry y="56" width="160" height="30" as="geometry" />
        </mxCell>
        <mxCell id="euC8J88ZWMYubrAlpnpI-66" value="roomSize" style="text;strokeColor=none;fillColor=none;spacingLeft=4;spacingRight=4;overflow=hidden;rotatable=0;points=[[0,0.5],[1,0.5]];portConstraint=eastwest;fontSize=12;whiteSpace=wrap;html=1;" parent="euC8J88ZWMYubrAlpnpI-58" vertex="1">
          <mxGeometry y="86" width="160" height="30" as="geometry" />
        </mxCell>
        <mxCell id="SGbg-Hxvqbd924DOJlkf-22" style="edgeStyle=orthogonalEdgeStyle;rounded=0;orthogonalLoop=1;jettySize=auto;html=1;" edge="1" parent="1" source="euC8J88ZWMYubrAlpnpI-70" target="euC8J88ZWMYubrAlpnpI-89">
          <mxGeometry relative="1" as="geometry">
            <Array as="points">
              <mxPoint x="140" y="301" />
            </Array>
          </mxGeometry>
        </mxCell>
        <mxCell id="euC8J88ZWMYubrAlpnpI-70" value="Customer" style="swimlane;fontStyle=0;childLayout=stackLayout;horizontal=1;startSize=26;horizontalStack=0;resizeParent=1;resizeParentMax=0;resizeLast=0;collapsible=1;marginBottom=0;align=center;fontSize=14;" parent="1" vertex="1">
          <mxGeometry x="10" y="387" width="160" height="86" as="geometry" />
        </mxCell>
        <mxCell id="euC8J88ZWMYubrAlpnpI-72" value="name {PK}" style="text;strokeColor=none;fillColor=none;spacingLeft=4;spacingRight=4;overflow=hidden;rotatable=0;points=[[0,0.5],[1,0.5]];portConstraint=eastwest;fontSize=12;whiteSpace=wrap;html=1;" parent="euC8J88ZWMYubrAlpnpI-70" vertex="1">
          <mxGeometry y="26" width="160" height="30" as="geometry" />
        </mxCell>
        <mxCell id="euC8J88ZWMYubrAlpnpI-71" value="city" style="text;strokeColor=none;fillColor=none;spacingLeft=4;spacingRight=4;overflow=hidden;rotatable=0;points=[[0,0.5],[1,0.5]];portConstraint=eastwest;fontSize=12;whiteSpace=wrap;html=1;" parent="euC8J88ZWMYubrAlpnpI-70" vertex="1">
          <mxGeometry y="56" width="160" height="30" as="geometry" />
        </mxCell>
        <mxCell id="euC8J88ZWMYubrAlpnpI-80" value="works for" style="edgeStyle=elbowEdgeStyle;rounded=0;orthogonalLoop=1;jettySize=auto;elbow=vertical;html=1;" parent="1" source="euC8J88ZWMYubrAlpnpI-75" target="euC8J88ZWMYubrAlpnpI-70" edge="1">
          <mxGeometry relative="1" as="geometry" />
        </mxCell>
        <mxCell id="euC8J88ZWMYubrAlpnpI-75" value="Customer Employee" style="swimlane;fontStyle=0;childLayout=stackLayout;horizontal=1;startSize=26;horizontalStack=0;resizeParent=1;resizeParentMax=0;resizeLast=0;collapsible=1;marginBottom=0;align=center;fontSize=14;" parent="1" vertex="1">
          <mxGeometry x="10" y="140" width="160" height="146" as="geometry" />
        </mxCell>
        <mxCell id="euC8J88ZWMYubrAlpnpI-99" value="employeeNo {PK}" style="text;strokeColor=none;fillColor=none;spacingLeft=4;spacingRight=4;overflow=hidden;rotatable=0;points=[[0,0.5],[1,0.5]];portConstraint=eastwest;fontSize=12;whiteSpace=wrap;html=1;" parent="euC8J88ZWMYubrAlpnpI-75" vertex="1">
          <mxGeometry y="26" width="160" height="30" as="geometry" />
        </mxCell>
        <mxCell id="euC8J88ZWMYubrAlpnpI-81" value="firstName" style="text;strokeColor=none;fillColor=none;spacingLeft=4;spacingRight=4;overflow=hidden;rotatable=0;points=[[0,0.5],[1,0.5]];portConstraint=eastwest;fontSize=12;whiteSpace=wrap;html=1;" parent="euC8J88ZWMYubrAlpnpI-75" vertex="1">
          <mxGeometry y="56" width="160" height="30" as="geometry" />
        </mxCell>
        <mxCell id="euC8J88ZWMYubrAlpnpI-82" value="lastName" style="text;strokeColor=none;fillColor=none;spacingLeft=4;spacingRight=4;overflow=hidden;rotatable=0;points=[[0,0.5],[1,0.5]];portConstraint=eastwest;fontSize=12;whiteSpace=wrap;html=1;" parent="euC8J88ZWMYubrAlpnpI-75" vertex="1">
          <mxGeometry y="86" width="160" height="30" as="geometry" />
        </mxCell>
        <mxCell id="euC8J88ZWMYubrAlpnpI-83" value="&lt;span style=&quot;white-space: pre;&quot;&gt;&#x9;&lt;/span&gt;/ name" style="text;strokeColor=none;fillColor=none;spacingLeft=4;spacingRight=4;overflow=hidden;rotatable=0;points=[[0,0.5],[1,0.5]];portConstraint=eastwest;fontSize=12;whiteSpace=wrap;html=1;" parent="euC8J88ZWMYubrAlpnpI-75" vertex="1">
          <mxGeometry y="116" width="160" height="30" as="geometry" />
        </mxCell>
        <mxCell id="euC8J88ZWMYubrAlpnpI-90" style="edgeStyle=elbowEdgeStyle;rounded=0;orthogonalLoop=1;jettySize=auto;elbow=vertical;html=1;" parent="1" source="euC8J88ZWMYubrAlpnpI-84" target="euC8J88ZWMYubrAlpnpI-89" edge="1">
          <mxGeometry relative="1" as="geometry" />
        </mxCell>
        <mxCell id="euC8J88ZWMYubrAlpnpI-84" value="Product" style="swimlane;fontStyle=0;childLayout=stackLayout;horizontal=1;startSize=26;horizontalStack=0;resizeParent=1;resizeParentMax=0;resizeLast=0;collapsible=1;marginBottom=0;align=center;fontSize=14;" parent="1" vertex="1">
          <mxGeometry x="130" y="1" width="160" height="116" as="geometry" />
        </mxCell>
        <mxCell id="euC8J88ZWMYubrAlpnpI-85" value="productNo {PK}" style="text;strokeColor=none;fillColor=none;spacingLeft=4;spacingRight=4;overflow=hidden;rotatable=0;points=[[0,0.5],[1,0.5]];portConstraint=eastwest;fontSize=12;whiteSpace=wrap;html=1;" parent="euC8J88ZWMYubrAlpnpI-84" vertex="1">
          <mxGeometry y="26" width="160" height="30" as="geometry" />
        </mxCell>
        <mxCell id="euC8J88ZWMYubrAlpnpI-86" value="name" style="text;strokeColor=none;fillColor=none;spacingLeft=4;spacingRight=4;overflow=hidden;rotatable=0;points=[[0,0.5],[1,0.5]];portConstraint=eastwest;fontSize=12;whiteSpace=wrap;html=1;" parent="euC8J88ZWMYubrAlpnpI-84" vertex="1">
          <mxGeometry y="56" width="160" height="30" as="geometry" />
        </mxCell>
        <mxCell id="euC8J88ZWMYubrAlpnpI-87" value="unitPrice" style="text;strokeColor=none;fillColor=none;spacingLeft=4;spacingRight=4;overflow=hidden;rotatable=0;points=[[0,0.5],[1,0.5]];portConstraint=eastwest;fontSize=12;whiteSpace=wrap;html=1;" parent="euC8J88ZWMYubrAlpnpI-84" vertex="1">
          <mxGeometry y="86" width="160" height="30" as="geometry" />
        </mxCell>
        <mxCell id="euC8J88ZWMYubrAlpnpI-89" value="Sells" style="shape=rhombus;perimeter=rhombusPerimeter;whiteSpace=wrap;html=1;align=center;" parent="1" vertex="1">
          <mxGeometry x="200" y="271" width="120" height="60" as="geometry" />
        </mxCell>
        <mxCell id="euC8J88ZWMYubrAlpnpI-98" style="edgeStyle=elbowEdgeStyle;rounded=0;orthogonalLoop=1;jettySize=auto;elbow=vertical;html=1;dashed=1;dashPattern=8 8;endArrow=none;endFill=0;startArrow=none;startFill=0;" parent="1" source="euC8J88ZWMYubrAlpnpI-93" target="euC8J88ZWMYubrAlpnpI-89" edge="1">
          <mxGeometry relative="1" as="geometry">
            <mxPoint x="372" y="206" as="sourcePoint" />
            <mxPoint x="360.0000000000001" y="300" as="targetPoint" />
            <Array as="points">
              <mxPoint x="372" y="300" />
            </Array>
          </mxGeometry>
        </mxCell>
        <mxCell id="euC8J88ZWMYubrAlpnpI-93" value="" style="swimlane;fontStyle=0;childLayout=stackLayout;horizontal=1;startSize=26;horizontalStack=0;resizeParent=1;resizeParentMax=0;resizeLast=0;collapsible=1;marginBottom=0;align=center;fontSize=14;" parent="1" vertex="1">
          <mxGeometry x="290" y="150" width="100" height="56" as="geometry" />
        </mxCell>
        <mxCell id="euC8J88ZWMYubrAlpnpI-94" value="quantity" style="text;strokeColor=none;fillColor=none;spacingLeft=4;spacingRight=4;overflow=hidden;rotatable=0;points=[[0,0.5],[1,0.5]];portConstraint=eastwest;fontSize=12;whiteSpace=wrap;html=1;" parent="euC8J88ZWMYubrAlpnpI-93" vertex="1">
          <mxGeometry y="26" width="100" height="30" as="geometry" />
        </mxCell>
        <mxCell id="SGbg-Hxvqbd924DOJlkf-7" value="manufactures" style="edgeStyle=orthogonalEdgeStyle;rounded=0;orthogonalLoop=1;jettySize=auto;html=1;" edge="1" parent="1" source="SGbg-Hxvqbd924DOJlkf-2" target="euC8J88ZWMYubrAlpnpI-84">
          <mxGeometry relative="1" as="geometry" />
        </mxCell>
        <mxCell id="SGbg-Hxvqbd924DOJlkf-2" value="Manufacturer" style="swimlane;fontStyle=0;childLayout=stackLayout;horizontal=1;startSize=30;horizontalStack=0;resizeParent=1;resizeParentMax=0;resizeLast=0;collapsible=1;marginBottom=0;whiteSpace=wrap;html=1;" vertex="1" parent="1">
          <mxGeometry x="400" y="-50" width="140" height="60" as="geometry" />
        </mxCell>
        <mxCell id="SGbg-Hxvqbd924DOJlkf-3" value="name {PK}" style="text;strokeColor=none;fillColor=none;align=left;verticalAlign=middle;spacingLeft=4;spacingRight=4;overflow=hidden;points=[[0,0.5],[1,0.5]];portConstraint=eastwest;rotatable=0;whiteSpace=wrap;html=1;" vertex="1" parent="SGbg-Hxvqbd924DOJlkf-2">
          <mxGeometry y="30" width="140" height="30" as="geometry" />
        </mxCell>
        <mxCell id="SGbg-Hxvqbd924DOJlkf-8" value="1" style="text;html=1;align=center;verticalAlign=middle;resizable=0;points=[];autosize=1;strokeColor=none;fillColor=none;" vertex="1" parent="1">
          <mxGeometry x="375" y="-42" width="30" height="30" as="geometry" />
        </mxCell>
        <mxCell id="SGbg-Hxvqbd924DOJlkf-9" value="1..*" style="text;html=1;align=center;verticalAlign=middle;resizable=0;points=[];autosize=1;strokeColor=none;fillColor=none;" vertex="1" parent="1">
          <mxGeometry x="290" y="30" width="40" height="30" as="geometry" />
        </mxCell>
        <mxCell id="SGbg-Hxvqbd924DOJlkf-10" value="1..*" style="text;html=1;align=center;verticalAlign=middle;resizable=0;points=[];autosize=1;strokeColor=none;fillColor=none;" vertex="1" parent="1">
          <mxGeometry x="550" y="88" width="40" height="30" as="geometry" />
        </mxCell>
        <mxCell id="SGbg-Hxvqbd924DOJlkf-11" value="1" style="text;html=1;align=center;verticalAlign=middle;resizable=0;points=[];autosize=1;strokeColor=none;fillColor=none;" vertex="1" parent="1">
          <mxGeometry x="640" y="88" width="30" height="30" as="geometry" />
        </mxCell>
        <mxCell id="SGbg-Hxvqbd924DOJlkf-12" value="1" style="text;html=1;align=center;verticalAlign=middle;resizable=0;points=[];autosize=1;strokeColor=none;fillColor=none;" vertex="1" parent="1">
          <mxGeometry x="675" y="128" width="30" height="30" as="geometry" />
        </mxCell>
        <mxCell id="SGbg-Hxvqbd924DOJlkf-13" value="1" style="text;html=1;align=center;verticalAlign=middle;resizable=0;points=[];autosize=1;strokeColor=none;fillColor=none;" vertex="1" parent="1">
          <mxGeometry x="605" y="368" width="30" height="30" as="geometry" />
        </mxCell>
        <mxCell id="SGbg-Hxvqbd924DOJlkf-14" value="1" style="text;html=1;align=center;verticalAlign=middle;resizable=0;points=[];autosize=1;strokeColor=none;fillColor=none;" vertex="1" parent="1">
          <mxGeometry x="745" y="120" width="30" height="30" as="geometry" />
        </mxCell>
        <mxCell id="SGbg-Hxvqbd924DOJlkf-15" value="1..*" style="text;html=1;align=center;verticalAlign=middle;resizable=0;points=[];autosize=1;strokeColor=none;fillColor=none;" vertex="1" parent="1">
          <mxGeometry x="740" y="208" width="40" height="30" as="geometry" />
        </mxCell>
        <mxCell id="SGbg-Hxvqbd924DOJlkf-16" value="1" style="text;html=1;align=center;verticalAlign=middle;resizable=0;points=[];autosize=1;strokeColor=none;fillColor=none;" vertex="1" parent="1">
          <mxGeometry x="745" y="358" width="30" height="30" as="geometry" />
        </mxCell>
        <mxCell id="SGbg-Hxvqbd924DOJlkf-17" value="1..*" style="text;html=1;align=center;verticalAlign=middle;resizable=0;points=[];autosize=1;strokeColor=none;fillColor=none;" vertex="1" parent="1">
          <mxGeometry x="380" y="478" width="40" height="30" as="geometry" />
        </mxCell>
        <mxCell id="SGbg-Hxvqbd924DOJlkf-18" value="1" style="text;html=1;align=center;verticalAlign=middle;resizable=0;points=[];autosize=1;strokeColor=none;fillColor=none;" vertex="1" parent="1">
          <mxGeometry x="290" y="430" width="30" height="30" as="geometry" />
        </mxCell>
        <mxCell id="SGbg-Hxvqbd924DOJlkf-19" value="*" style="text;html=1;align=center;verticalAlign=middle;resizable=0;points=[];autosize=1;strokeColor=none;fillColor=none;" vertex="1" parent="1">
          <mxGeometry x="165" y="428" width="30" height="30" as="geometry" />
        </mxCell>
        <mxCell id="SGbg-Hxvqbd924DOJlkf-20" value="1" style="text;html=1;align=center;verticalAlign=middle;resizable=0;points=[];autosize=1;strokeColor=none;fillColor=none;" vertex="1" parent="1">
          <mxGeometry x="65" y="358" width="30" height="30" as="geometry" />
        </mxCell>
        <mxCell id="SGbg-Hxvqbd924DOJlkf-21" value="1..*" style="text;html=1;align=center;verticalAlign=middle;resizable=0;points=[];autosize=1;strokeColor=none;fillColor=none;" vertex="1" parent="1">
          <mxGeometry x="60" y="278" width="40" height="30" as="geometry" />
        </mxCell>
        <mxCell id="SGbg-Hxvqbd924DOJlkf-23" value="*" style="text;html=1;align=center;verticalAlign=middle;resizable=0;points=[];autosize=1;strokeColor=none;fillColor=none;" vertex="1" parent="1">
          <mxGeometry x="255" y="327" width="30" height="30" as="geometry" />
        </mxCell>
        <mxCell id="SGbg-Hxvqbd924DOJlkf-24" value="1" style="text;html=1;align=center;verticalAlign=middle;resizable=0;points=[];autosize=1;strokeColor=none;fillColor=none;" vertex="1" parent="1">
          <mxGeometry x="180" y="271" width="30" height="30" as="geometry" />
        </mxCell>
        <mxCell id="SGbg-Hxvqbd924DOJlkf-25" value="1" style="text;html=1;align=center;verticalAlign=middle;resizable=0;points=[];autosize=1;strokeColor=none;fillColor=none;" vertex="1" parent="1">
          <mxGeometry x="235" y="241" width="30" height="30" as="geometry" />
        </mxCell>
      </root>
    </mxGraphModel>
  </diagram>
</mxfile>
